<?xml version="1.0" encoding="UTF-8" standalone="no"?>
<svg width="800" height="600" xmlns="http://www.w3.org/2000/svg">
  <!-- Background -->
  <rect width="800" height="600" fill="#f5f5f5"/>
  
  <!-- Header -->
  <rect width="800" height="70" fill="#4f46e5"/>
  <text x="40" y="45" font-family="Arial" font-size="24" fill="white" font-weight="bold">CollegeConnect</text>
  
  <!-- Sidebar -->
  <rect x="0" y="70" width="200" height="530" fill="#1e293b"/>
  
  <!-- Sidebar Menu Items -->
  <text x="20" y="170" font-family="Arial" font-size="16" fill="#94a3b8">Dashboard</text>
  <text x="20" y="220" font-family="Arial" font-size="16" fill="#94a3b8">Timetable</text>
  <text x="20" y="270" font-family="Arial" font-size="16" fill="#94a3b8">Courses</text>
  <rect x="0" y="290" width="200" height="50" fill="#2d3a4f"/>
  <text x="20" y="320" font-family="Arial" font-size="16" fill="white">Attendance</text>
  <text x="20" y="370" font-family="Arial" font-size="16" fill="#94a3b8">Events</text>
  <text x="20" y="420" font-family="Arial" font-size="16" fill="#94a3b8">Profile</text>
  
  <!-- Main Content Area -->
  <rect x="200" y="70" width="600" height="530" fill="white"/>
  
  <!-- Page Title -->
  <text x="240" y="110" font-family="Arial" font-size="20" fill="#111827" font-weight="bold">Attendance Management</text>
  
  <!-- Subject Selector -->
  <rect x="240" y="130" width="520" height="50" fill="#f9fafb" rx="8"/>
  <text x="260" y="160" font-family="Arial" font-size="14" fill="#374151">Select Subject:</text>
  <rect x="370" y="140" width="370" height="30" fill="white" stroke="#d1d5db" rx="4"/>
  <text x="390" y="160" font-family="Arial" font-size="14" fill="#111827">Computer Science 101</text>
  
  <!-- QR Code Section -->
  <rect x="240" y="200" width="240" height="300" fill="white" stroke="#e5e7eb" rx="8"/>
  <text x="290" y="230" font-family="Arial" font-size="16" fill="#111827" font-weight="bold">Generate QR Code</text>
  
  <!-- QR Code Placeholder -->
  <rect x="290" y="250" width="140" height="140" fill="#f3f4f6" stroke="#d1d5db"/>
  <rect x="310" y="270" width="100" height="100" fill="white"/>
  <rect x="310" y="270" width="20" height="20" fill="black"/>
  <rect x="330" y="270" width="20" height="20" fill="black"/>
  <rect x="350" y="270" width="20" height="20" fill="black"/>
  <rect x="370" y="270" width="20" height="20" fill="black"/>
  <rect x="390" y="270" width="20" height="20" fill="black"/>
  <rect x="310" y="290" width="20" height="20" fill="black"/>
  <rect x="390" y="290" width="20" height="20" fill="black"/>
  <rect x="310" y="310" width="20" height="20" fill="black"/>
  <rect x="350" y="310" width="20" height="20" fill="black"/>
  <rect x="390" y="310" width="20" height="20" fill="black"/>
  <rect x="310" y="330" width="20" height="20" fill="black"/>
  <rect x="390" y="330" width="20" height="20" fill="black"/>
  <rect x="310" y="350" width="20" height="20" fill="black"/>
  <rect x="330" y="350" width="20" height="20" fill="black"/>
  <rect x="350" y="350" width="20" height="20" fill="black"/>
  <rect x="370" y="350" width="20" height="20" fill="black"/>
  <rect x="390" y="350" width="20" height="20" fill="black"/>
  
  <!-- Generate Button -->
  <rect x="280" y="410" width="160" height="40" rx="20" fill="#4f46e5"/>
  <text x="315" y="435" font-family="Arial" font-size="14" fill="white" font-weight="bold">Generate</text>
  
  <!-- Attendance Summary -->
  <rect x="500" y="200" width="260" height="300" fill="white" stroke="#e5e7eb" rx="8"/>
  <text x="530" y="230" font-family="Arial" font-size="16" fill="#111827" font-weight="bold">Attendance Summary</text>
  
  <!-- Chart -->
  <rect x="520" y="250" width="220" height="140" fill="#f9fafb" rx="4"/>
  <rect x="540" y="320" width="30" height="50" fill="#4f46e5" rx="2"/>
  <rect x="580" y="300" width="30" height="70" fill="#4f46e5" rx="2"/>
  <rect x="620" y="270" width="30" height="100" fill="#4f46e5" rx="2"/>
  <rect x="660" y="290" width="30" height="80" fill="#4f46e5" rx="2"/>
  
  <text x="545" y="380" font-family="Arial" font-size="10" fill="#6b7280">Week 1</text>
  <text x="585" y="380" font-family="Arial" font-size="10" fill="#6b7280">Week 2</text>
  <text x="625" y="380" font-family="Arial" font-size="10" fill="#6b7280">Week 3</text>
  <text x="665" y="380" font-family="Arial" font-size="10" fill="#6b7280">Week 4</text>
  
  <!-- Attendance Rate -->
  <text x="530" y="420" font-family="Arial" font-size="14" fill="#111827">Overall Attendance Rate:</text>
  <text x="670" y="420" font-family="Arial" font-size="16" fill="#4f46e5" font-weight="bold">92%</text>
  
  <!-- Export Button -->
  <rect x="550" y="440" width="160" height="40" rx="20" fill="#f9fafb" stroke="#d1d5db"/>
  <text x="585" y="465" font-family="Arial" font-size="14" fill="#4b5563" font-weight="bold">Export Data</text>
</svg>