<?xml version="1.0" encoding="UTF-8" standalone="no"?>
<svg width="800" height="600" xmlns="http://www.w3.org/2000/svg">
  <!-- Background -->
  <rect width="800" height="600" fill="#f5f5f5"/>
  
  <!-- Header -->
  <rect width="800" height="70" fill="#4f46e5"/>
  <text x="40" y="45" font-family="Arial" font-size="24" fill="white" font-weight="bold">CollegeConnect</text>
  
  <!-- Sidebar -->
  <rect x="0" y="70" width="200" height="530" fill="#1e293b"/>
  
  <!-- Sidebar Menu Items -->
  <rect x="0" y="140" width="200" height="50" fill="#2d3a4f"/>
  <text x="20" y="170" font-family="Arial" font-size="16" fill="white">Dashboard</text>
  <text x="20" y="220" font-family="Arial" font-size="16" fill="#94a3b8">Timetable</text>
  <text x="20" y="270" font-family="Arial" font-size="16" fill="#94a3b8">Courses</text>
  <text x="20" y="320" font-family="Arial" font-size="16" fill="#94a3b8">Attendance</text>
  <text x="20" y="370" font-family="Arial" font-size="16" fill="#94a3b8">Events</text>
  <text x="20" y="420" font-family="Arial" font-size="16" fill="#94a3b8">Profile</text>
  
  <!-- Main Content Area -->
  <rect x="200" y="70" width="600" height="530" fill="white"/>
  
  <!-- Page Title -->
  <text x="240" y="110" font-family="Arial" font-size="20" fill="#111827" font-weight="bold">Faculty Dashboard</text>
  
  <!-- Welcome Message -->
  <text x="240" y="150" font-family="Arial" font-size="16" fill="#4b5563">Welcome back, Dr. Smith!</text>
  
  <!-- Stats Cards -->
  <rect x="240" y="180" width="160" height="100" rx="8" fill="#eef2ff" stroke="#e0e7ff"/>
  <text x="260" y="210" font-family="Arial" font-size="14" fill="#4f46e5" font-weight="bold">Classes Today</text>
  <text x="260" y="250" font-family="Arial" font-size="24" fill="#1e1b4b" font-weight="bold">4</text>
  
  <rect x="420" y="180" width="160" height="100" rx="8" fill="#eff6ff" stroke="#dbeafe"/>
  <text x="440" y="210" font-family="Arial" font-size="14" fill="#2563eb" font-weight="bold">Students</text>
  <text x="440" y="250" font-family="Arial" font-size="24" fill="#1e3a8a" font-weight="bold">124</text>
  
  <rect x="600" y="180" width="160" height="100" rx="8" fill="#f0fdfa" stroke="#ccfbf1"/>
  <text x="620" y="210" font-family="Arial" font-size="14" fill="#0d9488" font-weight="bold">Attendance Rate</text>
  <text x="620" y="250" font-family="Arial" font-size="24" fill="#134e4a" font-weight="bold">92%</text>
  
  <!-- Today's Schedule Section -->
  <text x="240" y="320" font-family="Arial" font-size="18" fill="#111827" font-weight="bold">Today's Schedule</text>
  
  <!-- Timetable Entry 1 -->
  <rect x="240" y="340" width="520" height="70" rx="8" fill="#ffffff" stroke="#e5e7eb"/>
  <text x="260" y="370" font-family="Arial" font-size="16" fill="#111827" font-weight="bold">Computer Science 101</text>
  <text x="260" y="390" font-family="Arial" font-size="14" fill="#4b5563">9:00 AM - 10:30 AM | Room 302</text>
  
  <!-- Timetable Entry 2 -->
  <rect x="240" y="420" width="520" height="70" rx="8" fill="#ffffff" stroke="#e5e7eb"/>
  <text x="260" y="450" font-family="Arial" font-size="16" fill="#111827" font-weight="bold">Advanced Algorithms</text>
  <text x="260" y="470" font-family="Arial" font-size="14" fill="#4b5563">11:00 AM - 12:30 PM | Room 405</text>
  
  <!-- Timetable Entry 3 -->
  <rect x="240" y="500" width="520" height="70" rx="8" fill="#ffffff" stroke="#e5e7eb"/>
  <text x="260" y="530" font-family="Arial" font-size="16" fill="#111827" font-weight="bold">Database Systems</text>
  <text x="260" y="550" font-family="Arial" font-size="14" fill="#4b5563">2:00 PM - 3:30 PM | Lab 3</text>
</svg>